HIERARCHY
ROOT Hips
{
	OFFSET 0.00000 0.00000 0.00000
	CHANNELS 6 Xposition Yposition Zposition Zrotation Yrotation Xrotation 
	JOINT LHipJoint
	{
		OFFSET 0 0 0
		CHANNELS 3 Zrotation Yrotation Xrotation
		JOINT LeftHip
		{
			OFFSET 1.55766 -1.60504 1.11378
			CHANNELS 3 Zrotation Yrotation Xrotation
			JOINT LeftKnee
			{
				OFFSET 2.29047 -6.29302 0.00000
				CHANNELS 3 Zrotation Yrotation Xrotation
				JOINT LeftAnkle
				{
					OFFSET 2.52265 -6.93093 0.00000
					CHANNELS 3 Zrotation Yrotation Xrotation
					JOINT LeftToe
					{
						OFFSET 0.17633 -0.48446 2.02656
						CHANNELS 3 Zrotation Yrotation Xrotation
						End Site
						{
							OFFSET 0.00000 -0.00000 1.04989
						}
					}
				}
			}
		}
	}
	JOINT RHipJoint
	{
		OFFSET 0 0 0
		CHANNELS 3 Zrotation Yrotation Xrotation
		JOINT RightHip
		{
			OFFSET -1.48599 -1.60504 1.11378
			CHANNELS 3 Zrotation Yrotation Xrotation
			JOINT RightKnee
			{
				OFFSET -2.27280 -6.24448 0.00000
				CHANNELS 3 Zrotation Yrotation Xrotation
				JOINT RightAnkle
				{
					OFFSET -2.50834 -6.89161 0.00000
					CHANNELS 3 Zrotation Yrotation Xrotation
					JOINT RightToe
					{
						OFFSET -0.26967 -0.74090 2.08741
						CHANNELS 3 Zrotation Yrotation Xrotation
						End Site
						{
							OFFSET -0.00000 -0.00000 1.10614
						}
					}
				}
			}
		}
	}
	JOINT lowerback
	{
		OFFSET 0 0 0
		CHANNELS 3 Zrotation Yrotation Xrotation
		JOINT Chest
		{
			OFFSET 0.06481 2.02437 -0.08472
			CHANNELS 3 Zrotation Yrotation Xrotation
			JOINT Chest2
			{
				OFFSET 0.00015 1.96711 0.18069
				CHANNELS 3 Zrotation Yrotation Xrotation
				JOINT lowerneck
				{
					OFFSET 0 0 0
					CHANNELS 3 Zrotation Yrotation Xrotation
					JOINT Neck
					{
						OFFSET -0.29961 1.68293 -0.13041
						CHANNELS 3 Zrotation Yrotation Xrotation
						JOINT Head
						{
							OFFSET 0.59697 1.61501 -0.14669
							CHANNELS 3 Zrotation Yrotation Xrotation
							End Site
							{
								OFFSET 0.22973 1.74906 -0.10148
							}
						}
					}
				}
				JOINT LeftCollar
				{
					OFFSET 0 0 0
					CHANNELS 3 Zrotation Yrotation Xrotation
					JOINT LeftShoulder
					{
						OFFSET 3.37968 1.02893 0.31147
CHANNELS 3 Zrotation Xrotation Yrotation
						JOINT LeftElbow
						{
OFFSET 0 -5.198070 -0.000000
CHANNELS 3 Zrotation Xrotation Yrotation
							JOINT LeftWrist
							{
OFFSET 0 -3.093700 -0.000000
CHANNELS 3 Zrotation Xrotation Yrotation
								JOINT lhand
								{
									OFFSET 0 0 0
CHANNELS 3 Zrotation Xrotation Yrotation
									JOINT LFingers
									{
OFFSET 0 -0.672630 -0.000000
CHANNELS 3 Zrotation Xrotation Yrotation
										End Site
										{
OFFSET 0 -0.542290 -0.000000
										}
									}
								}
								JOINT LThumb
								{
OFFSET 0 0.000000 0.000000
CHANNELS 3 Zrotation Xrotation Yrotation
									End Site
									{
OFFSET 0 -0.550570 0.550570
									}
								}
							}
						}
					}
				}
				JOINT RightCollar
				{
					OFFSET 0 0 0
					CHANNELS 3 Zrotation Yrotation Xrotation
					JOINT RightShoulder
					{
						OFFSET -3.38254 0.96355 -0.16120
CHANNELS 3 Zrotation Xrotation Yrotation
						JOINT RightElbow
						{
OFFSET 0 -5.452220 -0.000000
CHANNELS 3 Zrotation Xrotation Yrotation
							JOINT RightWrist
							{
OFFSET 0 -3.012840 -0.000000
CHANNELS 3 Zrotation Xrotation Yrotation
								JOINT rhand
								{
									OFFSET 0 0 0
CHANNELS 3 Zrotation Xrotation Yrotation
									JOINT RFingers
									{
OFFSET 0 -0.622300 -0.000000
CHANNELS 3 Zrotation Xrotation Yrotation
										End Site
										{
OFFSET 0 -0.501710 -0.000000
										}
									}
								}
								JOINT RThumb
								{
OFFSET 0 0.000000 0.000000
CHANNELS 3 Zrotation Xrotation Yrotation
									End Site
									{
OFFSET 0 -0.509370 0.509370
									}
								}
							}
						}
					}
				}
			}
		}
	}
}
MOTION
Frames: 9
Frame Time: 0.008333333333333333
-5.676592 16.241837 34.498527 -116.630973 -84.797128 133.934898 0.000000 0.000000 0.000000 -13.365460 0.364215 -27.406060 1.358060 7.376550 20.835818 -0.155667 -17.289466 -10.594636 0.325781 -3.668475 -10.145780 0.000000 0.000000 0.000000 27.707746 -13.440819 -26.115686 -0.622155 -5.047589 14.044340 2.529363 30.236479 -3.656687 -0.021529 -0.947007 2.603109 5.350072 3.870269 3.108685 -3.030699 4.692651 -16.560173 -7.330116 0.494701 -20.276302 -34.264008 -3.287524 -6.519660 27.949463 -3.435654 6.582776 15.584289 -1.557021 4.158138 0.000000 0.000000 0.000000 130.513860 4.098640 48.458987 15.839864 -25.303016 3.577275 32.707757 -40.802696 25.684103 0.000000 0.000000 0.000000 -7.125000 0.000000 0.000000 1.759143 0.241914 1.752569 0.000000 0.000000 0.000000 -140.695987 2.467849 -74.671032 -12.473789 -20.511352 -2.265563 -15.922338 32.733259 8.825001 0.000000 0.000000 0.000000 7.125000 0.000000 0.000000 9.507343 38.983002 1.424456
-5.681685 16.242613 34.503788 -116.602466 -84.815894 133.954321 0.000000 0.000000 0.000000 -13.422027 0.419106 -27.469344 1.356876 7.373439 20.826516 -0.168827 -17.393834 -10.541960 0.315216 -3.609253 -9.979870 0.000000 0.000000 0.000000 27.687353 -13.451369 -26.149156 -0.620073 -5.039490 14.021285 2.529989 30.238887 -3.654880 -0.020689 -0.929609 2.555104 5.352001 3.869960 3.144779 -3.008912 4.699797 -16.557777 -7.309912 0.499287 -20.298994 -34.282607 -3.315055 -6.538988 27.939458 -3.478005 6.669971 15.584623 -1.580822 4.200998 0.000000 0.000000 0.000000 130.209657 4.291008 48.477432 15.816408 -25.271038 3.567217 32.766366 -40.896876 25.839691 0.000000 0.000000 0.000000 -7.125000 0.000000 0.000000 1.765286 0.054192 1.764389 0.000000 0.000000 0.000000 -140.516510 2.705079 -74.475139 -12.467370 -20.501858 -2.263320 -16.069967 32.700166 8.804787 0.000000 0.000000 0.000000 7.125000 0.000000 0.000000 9.377723 38.973502 1.406918
-5.687218 16.243598 34.509560 -116.574466 -84.836414 133.979513 0.000000 0.000000 0.000000 -13.483465 0.475640 -27.534354 1.355218 7.369209 20.813897 -0.183074 -17.502871 -10.482880 0.303877 -3.544146 -9.797572 0.000000 0.000000 0.000000 27.663108 -13.457669 -26.185828 -0.618460 -5.033011 14.002759 2.530169 30.240107 -3.655809 -0.020087 -0.914946 2.514792 5.346907 3.853661 3.165854 -2.960998 4.685075 -16.562307 -7.249649 0.497307 -20.327597 -34.329709 -3.325109 -6.526081 27.932380 -3.499199 6.728629 15.591874 -1.595727 4.223252 0.000000 0.000000 0.000000 129.860698 4.542851 48.420837 15.806555 -25.257660 3.562991 32.750288 -40.882797 25.844280 0.000000 0.000000 0.000000 -7.125000 0.000000 0.000000 1.754940 0.053544 1.754140 0.000000 0.000000 0.000000 -140.372764 2.890008 -74.339693 -12.453239 -20.480866 -2.258409 -16.172802 32.677307 8.777541 0.000000 0.000000 0.000000 7.125000 0.000000 0.000000 9.285140 38.953214 1.397384
-5.693264 16.244637 34.515904 -116.528778 -84.859700 133.989230 0.000000 0.000000 0.000000 -13.549489 0.532588 -27.599770 1.353225 7.364073 20.798581 -0.197163 -17.611653 -10.425785 0.293884 -3.485922 -9.634658 0.000000 0.000000 0.000000 27.635965 -13.464863 -26.225610 -0.617044 -5.027176 13.986104 2.531508 30.241560 -3.644843 -0.019879 -0.910174 2.501628 5.355648 3.846527 3.184106 -2.933884 4.681944 -16.567389 -7.223668 0.496112 -20.350134 -34.351722 -3.346932 -6.487195 27.934176 -3.546357 6.756342 15.595196 -1.623577 4.240790 0.000000 0.000000 0.000000 129.532879 4.763864 48.412667 15.799711 -25.248294 3.560104 32.680263 -40.734670 25.698065 0.000000 0.000000 0.000000 -7.125000 0.000000 0.000000 1.740261 0.233838 1.733982 0.000000 0.000000 0.000000 -140.187272 3.116877 -74.110813 -12.453563 -20.481346 -2.258487 -16.257685 32.580738 8.758382 0.000000 0.000000 0.000000 7.125000 0.000000 0.000000 9.209408 38.940007 1.388807
-5.699705 16.245748 34.522421 -116.437548 -84.883130 133.954272 0.000000 0.000000 0.000000 -13.613905 0.588721 -27.666026 1.351320 7.359076 20.783535 -0.211993 -17.724506 -10.365215 0.283463 -3.423979 -9.461593 0.000000 0.000000 0.000000 27.608630 -13.471048 -26.263167 -0.615404 -5.020515 13.967018 2.533800 30.238463 -3.614886 -0.020200 -0.917980 2.523079 5.380507 3.859734 3.207298 -2.935714 4.705883 -16.573625 -7.246700 0.501288 -20.369750 -34.342911 -3.383963 -6.423026 27.948288 -3.627399 6.766096 15.594971 -1.668696 4.260161 0.000000 0.000000 0.000000 129.229402 4.921314 48.466506 15.795176 -25.242187 3.558196 32.614718 -40.624679 25.607456 0.000000 0.000000 0.000000 -7.125000 0.000000 0.000000 1.718035 0.351514 1.708192 0.000000 0.000000 0.000000 -139.954047 3.397656 -73.816622 -12.472942 -20.510135 -2.265241 -16.332170 32.464625 8.763688 0.000000 0.000000 0.000000 7.125000 0.000000 0.000000 9.146739 38.950849 1.376687
-5.706106 16.246759 34.529235 -116.274010 -84.907340 133.845713 0.000000 0.000000 0.000000 -13.677149 0.646026 -27.735320 1.349712 7.354741 20.770701 -0.228517 -17.847275 -10.297374 0.273324 -3.362838 -9.290609 0.000000 0.000000 0.000000 27.580290 -13.467477 -26.290711 -0.613153 -5.011512 13.941449 2.530665 30.214102 -3.597818 -0.019971 -0.912318 2.507472 5.417380 3.874735 3.233822 -2.948494 4.732464 -16.583852 -7.290539 0.503530 -20.395181 -34.273657 -3.404806 -6.350116 27.950530 -3.694250 6.777223 15.577960 -1.706134 4.271653 0.000000 0.000000 0.000000 128.948299 5.066425 48.502924 15.792218 -25.238065 3.556847 32.672059 -40.764400 25.807044 0.000000 0.000000 0.000000 -7.125000 0.000000 0.000000 1.715453 0.115636 1.712758 0.000000 0.000000 0.000000 -139.687298 3.675379 -73.582151 -12.494081 -20.541522 -2.272670 -16.362651 32.411660 8.804105 0.000000 0.000000 0.000000 7.125000 0.000000 0.000000 9.127608 38.994634 1.363836
-5.712562 16.247769 34.536186 -116.094763 -84.930599 133.718786 0.000000 0.000000 0.000000 -13.739693 0.702954 -27.802304 1.348386 7.351247 20.760230 -0.244432 -17.967950 -10.234333 0.266663 -3.321963 -9.176331 0.000000 0.000000 0.000000 27.543671 -13.439701 -26.296275 -0.610202 -4.999742 13.907875 2.518266 30.153793 -3.604231 -0.019151 -0.893610 2.456155 5.450761 3.868418 3.255344 -2.931502 4.732434 -16.591413 -7.291485 0.497914 -20.421108 -34.199314 -3.394346 -6.300067 27.937931 -3.708522 6.802306 15.556992 -1.716135 4.272267 0.000000 0.000000 0.000000 128.630316 5.283282 48.459671 15.791796 -25.237516 3.556720 32.720575 -40.866264 25.959825 0.000000 0.000000 0.000000 -7.125000 0.000000 0.000000 1.716020 -0.065980 1.718820 0.000000 0.000000 0.000000 -139.455918 3.898076 -73.505370 -12.495224 -20.543136 -2.273081 -16.378557 32.453686 8.809043 0.000000 0.000000 0.000000 7.125000 0.000000 0.000000 9.114943 39.000877 1.360445
-5.718894 16.248767 34.543361 -115.898970 -84.952436 133.570309 0.000000 0.000000 0.000000 -13.800802 0.758383 -27.864702 1.347220 7.348373 20.751546 -0.259822 -18.086578 -10.176379 0.261599 -3.290562 -9.088708 0.000000 0.000000 0.000000 27.499955 -13.388586 -26.281431 -0.606846 -4.986445 13.869808 2.495983 30.059847 -3.645782 -0.017413 -0.851965 2.341684 5.478963 3.859100 3.277051 -2.898629 4.730735 -16.592500 -7.269684 0.495514 -20.439616 -34.125616 -3.376885 -6.249517 27.908721 -3.708581 6.813785 15.528555 -1.718808 4.263658 0.000000 0.000000 0.000000 128.280966 5.513238 48.403024 15.783518 -25.226270 3.553172 32.717382 -40.792497 25.901107 0.000000 0.000000 0.000000 -7.125000 0.000000 0.000000 1.725025 -0.000269 1.725778 0.000000 0.000000 0.000000 -139.259882 4.126887 -73.478072 -12.486573 -20.530266 -2.270020 -16.368161 32.515217 8.808382 0.000000 0.000000 0.000000 7.125000 0.000000 0.000000 9.123745 38.999481 1.362127
-5.725045 16.249527 34.550518 -115.663386 -84.973362 133.376018 0.000000 0.000000 0.000000 -13.864094 0.828794 -27.926186 1.346046 7.345264 20.742474 -0.276662 -18.221297 -10.118751 0.255891 -3.254876 -8.989119 0.000000 0.000000 0.000000 27.459513 -13.344312 -26.262992 -0.603809 -4.974037 13.834448 2.472020 29.967998 -3.710894 -0.015055 -0.791315 2.174724 5.498498 3.860082 3.310624 -2.866248 4.743590 -16.593400 -7.247593 0.501063 -20.464088 -34.037581 -3.364492 -6.159401 27.863159 -3.724116 6.788213 15.486713 -1.730599 4.241939 0.000000 0.000000 0.000000 127.927404 5.685495 48.387573 15.764002 -25.199603 3.544846 32.805735 -40.817211 25.947282 0.000000 0.000000 0.000000 -7.125000 0.000000 0.000000 1.768705 -0.075242 1.771850 0.000000 0.000000 0.000000 -139.068536 4.386431 -73.417624 -12.484855 -20.527855 -2.269418 -16.331439 32.535326 8.816218 0.000000 0.000000 0.000000 7.125000 0.000000 0.000000 9.156434 39.004791 1.365890
